<?xml version="1.0" encoding="UTF-8"?>
<svg viewBox="0 0 358 159" version="1.1" xmlns="http://www.w3.org/2000/svg" xmlns:xlink="http://www.w3.org/1999/xlink">
  <g id="CxHub">
    <path d="M354.749,19.08 C354.56,19.08 354.428,19.099 354.352,19.117 L354.352,20.022 L354.691,20.022 C355.089,20.022 355.409,19.887 355.409,19.56 C355.409,19.271 355.202,19.08 354.749,19.08 Z M354.806,18.56 C355.392,18.56 355.656,18.656 355.883,18.791 C356.053,18.925 356.185,19.176 356.185,19.484 C356.185,19.83 355.92,20.1 355.542,20.215 L355.542,20.253 C355.846,20.369 356.016,20.6 356.109,21.023 C356.204,21.504 356.261,21.696 356.337,21.812 L355.562,21.812 C355.468,21.696 355.409,21.408 355.314,21.042 C355.259,20.697 355.069,20.542 354.673,20.542 L354.333,20.542 L354.333,21.812 L353.613,21.812 L353.613,18.656 C353.897,18.598 354.295,18.56 354.806,18.56 Z M354.823,17.636 C353.443,17.636 352.423,18.771 352.423,20.156 C352.423,21.563 353.443,22.679 354.844,22.679 C356.204,22.679 357.207,21.563 357.207,20.177 C357.207,18.771 356.204,17.636 354.823,17.636 Z M354.823,17 C356.62,17 358,18.406 358,20.156 C358,21.947 356.62,23.352 354.823,23.352 C353.048,23.352 351.63,21.947 351.63,20.156 C351.63,18.406 353.048,17 354.823,17 Z M299.562,21.655 L294.32,31.418 L304.647,31.418 L299.562,21.655 Z M284.377,17 L284.377,21.292 L273.516,21.292 L273.516,41 L268.029,41 L268.029,21.292 L257.214,21.292 L257.214,17 L284.377,17 Z M302.394,17.001 L315.909,41 L309.753,41 L306.921,35.755 L291.979,35.755 L289.235,41 L283.771,41 L297.107,17.001 L302.394,17.001 Z M326.63,17.001 L334.168,25.151 L341.326,17.001 L347.638,17.001 L337.356,28.036 L350.07,41 L342.621,41 L333.989,31.691 L326.027,41 L319.56,41 L330.733,28.671 L319.359,17.001 L326.63,17.001 Z M227.402,17.001 L243.997,31.146 C244.562,31.616 245.059,32.057 245.49,32.474 C245.922,32.891 246.314,33.318 246.672,33.757 C246.582,32.41 246.524,31.456 246.494,30.897 C246.463,30.336 246.449,29.905 246.449,29.603 L246.449,17.001 L251.378,17.001 L251.378,41 L247.631,41 L230.325,26.173 C229.908,25.795 229.543,25.455 229.232,25.151 C228.92,24.85 228.629,24.539 228.363,24.221 C228.437,24.963 228.491,25.662 228.53,26.322 C228.566,26.98 228.585,27.552 228.585,28.036 L228.585,41 L223.656,41 L223.656,17.001 L227.402,17.001 Z M178.336,17.001 C180.552,17.001 182.079,17.387 182.92,18.159 C183.759,18.931 184.179,20.301 184.179,22.268 L184.179,22.742 L179.34,22.742 L179.34,21.202 L163.906,21.202 L163.906,26.356 L178.604,26.356 C180.908,26.356 182.466,26.756 183.276,27.558 C184.087,28.361 184.492,29.851 184.492,32.032 L184.492,35.323 C184.492,37.503 184.087,38.994 183.276,39.795 C182.466,40.599 180.908,41 178.604,41 L164.888,41 C162.583,41 161.026,40.599 160.215,39.795 C159.405,38.994 159,37.503 159,35.323 L159,34.798 L163.84,34.798 L163.84,36.481 L179.652,36.481 L179.652,31.009 L164.955,31.009 C162.664,31.009 161.119,30.609 160.315,29.806 C159.513,29.003 159.111,27.514 159.111,25.333 L159.111,22.678 C159.111,20.498 159.513,19.006 160.315,18.205 C161.119,17.402 162.664,17.001 164.955,17.001 L178.336,17.001 Z M196.115,17.001 L204.211,26.219 L212.329,17.001 L218.775,17.001 L206.575,30.125 L206.575,41 L201.045,41 L201.045,30.261 L188.8,17.001 L196.115,17.001 Z M332.551,97.46 C327.771,97.46 322.733,99.794 316.015,104.332 L316.015,140.255 C320.666,142.978 324.67,144.534 329.578,144.534 C337.977,144.534 345.985,139.605 345.985,120.543 C345.985,101.48 341.076,97.46 332.551,97.46 Z M316.015,57 L316.015,79.824 C316.015,84.621 315.886,89.16 315.498,94.736 L315.627,94.866 C321.699,91.105 328.029,87.733 335.651,87.733 C349.474,87.733 358,94.866 358,120.024 C358,145.312 345.47,154 331.13,154 C324.67,154 319.761,152.185 314.465,149.202 L313.948,153 L304,153 L304,57 L316.015,57 Z M257.071,89 L257.071,130.822 C257.071,140.923 260.447,144.289 267.977,144.289 C273.428,144.289 279.658,141.698 287.057,137.038 L287.057,89 L299,89 L299,153 L289.135,153 L288.355,145.972 C280.438,150.763 272.649,154 264.342,154 C251.102,154 245,147.655 245,132.895 L245,89 L257.071,89 Z M91.294,1 C101.544,1 110.935,2.862 119.205,6.535 C127.634,10.282 135.199,16.648 141.691,25.463 L144.804,29.688 L115.063,49.549 L112.197,46.002 C108.222,41.083 104.314,37.808 100.583,36.266 C96.678,34.657 92.543,33.841 88.295,33.841 C81.651,33.841 75.396,35.03 69.705,37.371 C63.961,39.732 58.787,43.043 54.322,47.214 C49.834,51.405 46.074,56.376 43.149,61.99 C40.235,67.588 38.326,73.701 37.477,80.153 C36.492,87.175 36.638,93.653 37.904,99.456 C39.139,105.105 41.349,110.029 44.475,114.087 C47.571,118.111 51.604,121.324 56.46,123.64 C61.352,125.976 67.152,127.159 73.702,127.159 C78.657,127.159 83.719,125.941 88.743,123.542 C89.912,122.983 91.087,122.33 92.268,121.6 L59.055,159.336 C51.871,158.488 45.161,156.825 39.033,154.324 C29.684,150.508 21.823,145.005 15.669,137.966 C9.527,130.949 5.066,122.432 2.412,112.652 C-0.223,102.959 -0.702,92.103 0.989,80.384 C2.662,68.52 6.176,57.546 11.431,47.785 C16.695,38.015 23.396,29.559 31.348,22.65 C39.305,15.737 48.505,10.341 58.693,6.611 C68.867,2.888 79.835,1 91.294,1 Z M126.211,62 L138.73,86.382 L157.792,62 L189,62 L153.495,103.978 L176,143.078 L176,88.197 L188.253,73.56 L188.253,101.18 L227.877,101.18 L227.877,62 L240,62 L240,153 L227.877,153 L227.877,111.206 L188.253,111.206 L188.253,153 L148.637,153 L135.465,127.205 L130.449,133.078 C122.26,142.412 112.819,149.321 102.389,153.616 C92.099,157.853 81.304,160 70.304,160 C69.593,160 68.896,159.971 68.191,159.956 L117.435,104.004 L117.417,103.988 L117.427,103.978 L93.133,62 L126.211,62 L126.211,62 Z" id="Fill" fill="#000000"></path>
  </g>
</svg>
